{"title":"\nSweetiee Weds NRI 2017 Hindi 720p WEB-DL x264 AAC { TaRa }","magnet":"magnet:?xt=urn:btih:a4b74c91db3ff4e647df803c23ff634360b5bb1c&dn=Sweetiee+Weds+NRI+2017+Hindi+720p+WEB-DL+x264+AAC+%7B+TaRa+%7D&tr=udp%3A%2F%2Ftracker.leechers-paradise.org%3A6969&tr=udp%3A%2F%2Fzer0day.ch%3A1337&tr=udp%3A%2F%2Fopen.demonii.com%3A1337&tr=udp%3A%2F%2Ftracker.coppersurfer.tk%3A6969&tr=udp%3A%2F%2Fexodus.desync.com%3A6969","uploader":"SkTaRa","categoryP":"video","categoryS":"hd___movies","size":"973470721","seeders":"0","leechers":"51","description":"===================================================================\r\nGeneral\r\nComplete name               : Sweetiee Weds NRI 2017 Hindi 720p WEB-DL x264 AAC { TaRa }.mkv\r\nFormat                      : Matroska\r\nFormat version              : Version 4 / Version 2\r\nFile size                   : 928 MiB\r\nDuration                    : 1 h 56 min\r\nOverall bit rate            : 1 110 kb/s\r\n===================================================================\r\nVideo\r\nID                          : 1\r\nFormat                      : AVC\r\nFormat/Info                 : Advanced Video Codec\r\nFormat profile              : <a href=\"/cdn-cgi/l/email-protection\" class=\"__cf_email__\" data-cfemail=\"054d6c626d4549312b34\">[email&#xA0;protected]</a>\r\nFormat settings             : CABAC / 8 Ref Frames\r\nFormat settings, CABAC      : Yes\r\nFormat settings, RefFrames  : 8 frames\r\nCodec ID                    : V_MPEG4/ISO/AVC\r\nDuration                    : 1 h 56 min\r\nBit rate                    : 1 000 kb/s\r\nWidth                       : 1 280 pixels\r\nHeight                      : 536 pixels\r\nDisplay aspect ratio        : 2.40:1\r\nFrame rate mode             : Constant\r\nFrame rate                  : 24.000 FPS\r\nColor space                 : YUV\r\nChroma subsampling          : 4:2:0\r\nBit depth                   : 8 bits\r\nScan type                   : Progressive\r\nBits/(Pixel*Frame)          : 0.061\r\nStream size                 : 836 MiB (90%)\r\nTitle                       : .....::::: TaRa :::::.....\r\nLanguage                    : Hindi\r\nDefault                     : Yes\r\nForced                      : No\r\n===================================================================\r\nAudio\r\nID                          : 2\r\nFormat                      : AAC\r\nFormat/Info                 : Advanced Audio Codec\r\nFormat profile              : LC\r\nCodec ID                    : A_AAC-2\r\nDuration                    : 1 h 56 min\r\nBit rate                    : 108 kb/s\r\nChannel(s)                  : 2 channels\r\nChannel positions           : Front: L R\r\nSampling rate               : 44.1 kHz\r\nFrame rate                  : 43.066 FPS (1024 SPF)\r\nCompression mode            : Lossy\r\nStream size                 : 89.9 MiB (10%)\r\nTitle                       : .....::::: TaRa :::::.....\r\nLanguage                    : Hindi\r\nDefault                     : Yes\r\nForced                      : No\r\n=================================================================== <a href=\"\nhttp://ssec.life/i/image/O4Q1\" rel=\"nofollow\" target=\"_NEW\">\nhttp://ssec.life/i/image/O4Q1</a> <a href=\"\nhttp://ssec.life/i/image/OV4S\" rel=\"nofollow\" target=\"_NEW\">\nhttp://ssec.life/i/image/OV4S</a> <a href=\"\nhttp://ssec.life/i/image/OWuC\" rel=\"nofollow\" target=\"_NEW\">\nhttp://ssec.life/i/image/OWuC</a> <a href=\"\nhttp://ssec.life/i/image/OS2r\" rel=\"nofollow\" target=\"_NEW\">\nhttp://ssec.life/i/image/OS2r</a> <a href=\"\nhttp://ssec.life/i/image/Ol5y\" rel=\"nofollow\" target=\"_NEW\">\nhttp://ssec.life/i/image/Ol5y</a> <a href=\"\nhttp://ssec.life/i/image/OEVG\" rel=\"nofollow\" target=\"_NEW\">\nhttp://ssec.life/i/image/OEVG</a> <a href=\"\nhttp://ssec.life/i/image/OXD9\" rel=\"nofollow\" target=\"_NEW\">\nhttp://ssec.life/i/image/OXD9</a> <a href=\"\nhttp://ssec.life/i/image/ORBT\" rel=\"nofollow\" target=\"_NEW\">\nhttp://ssec.life/i/image/ORBT</a> <a href=\"\nhttp://ssec.life/i/image/OAuz\" rel=\"nofollow\" target=\"_NEW\">\nhttp://ssec.life/i/image/OAuz</a> <a href=\"\nhttp://ssec.life/i/image/j2wl\" rel=\"nofollow\" target=\"_NEW\">\nhttp://ssec.life/i/image/j2wl</a> <a href=\"\nhttp://ssec.life/i/image/jCna\" rel=\"nofollow\" target=\"_NEW\">\nhttp://ssec.life/i/image/jCna</a> <a href=\"\nhttp://ssec.life/i/image/jcDV\" rel=\"nofollow\" target=\"_NEW\">\nhttp://ssec.life/i/image/jcDV</a> <a href=\"\nhttp://ssec.life/i/image/jMec\" rel=\"nofollow\" target=\"_NEW\">\nhttp://ssec.life/i/image/jMec</a> <a href=\"\nhttp://ssec.life/i/image/j1KP\" rel=\"nofollow\" target=\"_NEW\">\nhttp://ssec.life/i/image/j1KP</a> <a href=\"\nhttp://ssec.life/i/image/jKa2\" rel=\"nofollow\" target=\"_NEW\">\nhttp://ssec.life/i/image/jKa2</a> <a href=\"\nhttp://ssec.life/i/image/jTVN\" rel=\"nofollow\" target=\"_NEW\">\nhttp://ssec.life/i/image/jTVN</a> <a href=\"\nhttp://ssec.life/i/image/js7d\" rel=\"nofollow\" target=\"_NEW\">\nhttp://ssec.life/i/image/js7d</a> <a href=\"\nhttp://ssec.life/i/image/jtuY\" rel=\"nofollow\" target=\"_NEW\">\nhttp://ssec.life/i/image/jtuY</a> <a href=\"\nhttp://ssec.life/i/image/jGBv\" rel=\"nofollow\" target=\"_NEW\">\nhttp://ssec.life/i/image/jGBv</a> <a href=\"\nhttp://ssec.life/i/image/jnE0\" rel=\"nofollow\" target=\"_NEW\">\nhttp://ssec.life/i/image/jnE0</a> <a href=\"\nhttp://ssec.life/i/image/j9ee\" rel=\"nofollow\" target=\"_NEW\">\nhttp://ssec.life/i/image/j9ee</a> <a href=\"\nhttp://ssec.life/i/image/j3nZ\" rel=\"nofollow\" target=\"_NEW\">\nhttp://ssec.life/i/image/j3nZ</a> <a href=\"\nhttp://ssec.life/i/image/jHFs\" rel=\"nofollow\" target=\"_NEW\">\nhttp://ssec.life/i/image/jHFs</a> <a href=\"\nhttp://ssec.life/i/image/jxai\" rel=\"nofollow\" target=\"_NEW\">\nhttp://ssec.life/i/image/jxai</a> <a href=\"\nhttp://ssec.life/i/image/j8m1\" rel=\"nofollow\" target=\"_NEW\">\nhttp://ssec.life/i/image/j8m1</a> <a href=\"\nhttp://ssec.life/i/image/jp7S\" rel=\"nofollow\" target=\"_NEW\">\nhttp://ssec.life/i/image/jp7S</a>","last_updated":"2017-10-15T12:04:40.012Z","parsed":{"xt":"urn:btih:a4b74c91db3ff4e647df803c23ff634360b5bb1c","dn":"Sweetiee Weds NRI 2017 Hindi 720p WEB-DL x264 AAC { TaRa }","tr":["udp://exodus.desync.com:6969","udp://open.demonii.com:1337","udp://tracker.coppersurfer.tk:6969","udp://tracker.leechers-paradise.org:6969","udp://zer0day.ch:1337"],"infoHash":"a4b74c91db3ff4e647df803c23ff634360b5bb1c","infoHashBuffer":{"type":"Buffer","data":[164,183,76,145,219,63,244,230,71,223,128,60,35,255,99,67,96,181,187,28]},"name":"Sweetiee Weds NRI 2017 Hindi 720p WEB-DL x264 AAC { TaRa }","announce":["udp://exodus.desync.com:6969","udp://open.demonii.com:1337","udp://tracker.coppersurfer.tk:6969","udp://tracker.leechers-paradise.org:6969","udp://zer0day.ch:1337"],"urlList":[]}}